<?xml version="1.0" standalone="no"?>
<!DOCTYPE svg PUBLIC "-//W3C//DTD SVG 20010904//EN"
 "http://www.w3.org/TR/2001/REC-SVG-20010904/DTD/svg10.dtd">
<svg version="1.0" xmlns="http://www.w3.org/2000/svg"
 width="2134.000000pt" height="2134.000000pt" viewBox="0 0 2134.000000 2134.000000"
 preserveAspectRatio="xMidYMid meet">
<metadata>
Created by potrace 1.11, written by Peter Selinger 2001-2013
</metadata>
<g transform="translate(0.000000,2134.000000) scale(0.100000,-0.100000)"
fill="#000000" stroke="none">
<path d="M3500 20511 l0 -829 -607 -5 c-556 -4 -620 -6 -743 -26 -287 -45
-516 -116 -759 -236 -761 -378 -1278 -1110 -1376 -1951 -13 -114 -15 -998 -15
-7629 0 -4981 4 -7530 10 -7590 68 -601 320 -1121 746 -1535 370 -360 795
-578 1319 -678 l140 -26 8385 -4 c5781 -2 8416 1 8485 8 600 62 1128 318 1545
746 360 370 578 795 678 1319 l26 140 3 7555 c3 6715 2 7570 -12 7689 -73 642
-409 1255 -905 1654 -297 239 -675 423 -1030 501 -248 54 -301 58 -947 63
l-603 5 0 829 0 829 -835 0 -835 0 0 -830 0 -830 -5500 0 -5500 0 0 830 0 830
-835 0 -835 0 0 -829z m0 -3346 l0 -835 835 0 835 0 0 835 0 835 5500 0 5500
0 0 -835 0 -835 835 0 835 0 0 835 0 835 524 0 c568 0 627 -4 763 -55 141 -53
292 -169 379 -290 56 -80 108 -189 136 -290 l22 -80 4 -1052 3 -1053 -9001 0
-9001 0 3 1053 4 1052 22 80 c91 327 342 562 660 619 59 11 202 14 610 15
l532 1 0 -835z m16168 -9222 l-3 -5558 -23 -79 c-86 -306 -310 -528 -613 -609
l-84 -22 -8275 0 -8275 0 -84 22 c-303 81 -527 303 -613 609 l-23 79 -3 5558
-2 5557 9000 0 9000 0 -2 -5557z"/>
<path d="M17157 12944 c-1 -1 -39 -4 -84 -8 -508 -39 -994 -337 -1288 -789
-87 -135 -196 -383 -219 -499 -2 -13 -10 -46 -16 -75 -28 -129 -38 -235 -35
-393 2 -91 6 -181 9 -200 4 -19 14 -73 22 -119 29 -162 121 -403 208 -546 17
-27 56 -87 88 -132 32 -45 58 -84 58 -88 0 -3 -49 -55 -109 -115 l-109 -109
-110 111 -111 112 -405 -409 c-223 -225 -598 -601 -832 -837 l-427 -428 -313
0 -314 0 0 -835 0 -835 835 0 835 0 0 692 0 691 375 376 c958 962 909 910 888
933 -10 12 -57 60 -105 108 -49 48 -88 92 -88 97 0 7 163 175 214 221 2 2 44
-26 92 -62 49 -36 127 -87 174 -113 175 -99 337 -157 550 -198 73 -14 160 -20
295 -20 205 0 266 8 480 64 160 42 450 190 562 287 12 10 37 30 54 44 53 41
180 170 240 245 206 255 346 598 375 921 12 127 6 361 -11 439 -3 11 -7 31 -9
45 -21 130 -89 336 -152 463 -295 587 -869 948 -1530 961 -47 1 -86 1 -87 0z"/>
<path d="M3160 10920 l0 -840 840 0 840 0 0 840 0 840 -840 0 -840 0 0 -840z"/>
<path d="M6500 10920 l0 -840 835 0 835 0 0 840 0 840 -835 0 -835 0 0 -840z"/>
<path d="M9830 10920 l0 -840 840 0 840 0 0 840 0 840 -840 0 -840 0 0 -840z"/>
<path d="M13170 10920 l0 -840 835 0 835 0 0 840 0 840 -835 0 -835 0 0 -840z"/>
<path d="M3160 7585 l0 -835 840 0 840 0 0 835 0 835 -840 0 -840 0 0 -835z"/>
<path d="M6500 7585 l0 -835 835 0 835 0 0 835 0 835 -835 0 -835 0 0 -835z"/>
<path d="M9830 7585 l0 -835 840 0 840 0 0 835 0 835 -840 0 -840 0 0 -835z"/>
<path d="M16500 7585 l0 -835 840 0 840 0 0 835 0 835 -840 0 -840 0 0 -835z"/>
<path d="M3160 4250 l0 -840 840 0 840 0 0 840 0 840 -840 0 -840 0 0 -840z"/>
<path d="M6500 4250 l0 -840 835 0 835 0 0 840 0 840 -835 0 -835 0 0 -840z"/>
<path d="M9830 4250 l0 -840 840 0 840 0 0 840 0 840 -840 0 -840 0 0 -840z"/>
<path d="M13170 4250 l0 -840 835 0 835 0 0 840 0 840 -835 0 -835 0 0 -840z"/>
</g>
</svg>
